<svg viewBox="0 0 30 28" fill="currentColor" xmlns="http://www.w3.org/2000/svg">
<path d="M15.1458 23.2969L15 23.4427L14.8396 23.2969C7.91249 17.0115 3.33332 12.8552 3.33332 8.64065C3.33332 5.72398 5.52082 3.53648 8.43749 3.53648C10.6833 3.53648 12.8708 4.99481 13.6437 6.97815H16.3562C17.1292 4.99481 19.3167 3.53648 21.5625 3.53648C24.4792 3.53648 26.6667 5.72398 26.6667 8.64065C26.6667 12.8552 22.0875 17.0115 15.1458 23.2969ZM21.5625 0.619812C19.025 0.619812 16.5896 1.80106 15 3.65315C13.4104 1.80106 10.975 0.619812 8.43749 0.619812C3.94582 0.619812 0.416656 4.1344 0.416656 8.64065C0.416656 14.1386 5.37499 18.6448 12.8854 25.4552L15 27.3802L17.1146 25.4552C24.625 18.6448 29.5833 14.1386 29.5833 8.64065C29.5833 4.1344 26.0542 0.619812 21.5625 0.619812Z" />
</svg>
