<svg xmlns="http://www.w3.org/2000/svg" width="600" height="400" viewBox="0 0 600 400"><rect width="100%" height="100%" fill="#DDDDDD"/><path fill="#999999" d="M134.785 216.45h12.24q3.37 0 5.67-.81 2.29-.81 3.67-2.16 1.37-1.35 1.98-3.15.6-1.8.6-3.82 0-2.12-.67-3.81-.68-1.68-2.12-2.88-1.44-1.19-3.71-1.82t-5.47-.63h-12.19zm10.3-46.26h-10.3V189h9.63q6.21 0 9.38-2.25t3.17-7.15q0-5.09-2.88-7.25t-9-2.16m-22.41-9.36h22.41q6.39 0 10.94 1.22 4.54 1.21 7.44 3.46 2.91 2.25 4.26 5.44 1.35 3.2 1.35 7.21 0 2.29-.68 4.38-.67 2.09-2.09 3.92-1.42 1.82-3.6 3.31-2.18 1.48-5.2 2.51 13.41 3.02 13.41 14.49 0 4.15-1.57 7.66-1.58 3.51-4.59 6.05-3.02 2.54-7.43 3.98t-10.08 1.44h-24.57zm57.87 18.9h11.16v46.17h-11.16zm12.69-13.46q0 1.45-.58 2.71-.59 1.26-1.55 2.2-.97.95-2.28 1.51-1.3.56-2.79.56-1.44 0-2.72-.56t-2.23-1.51q-.94-.94-1.51-2.2-.56-1.26-.56-2.71 0-1.48.56-2.78.57-1.31 1.51-2.25.95-.95 2.23-1.51t2.72-.56q1.49 0 2.79.56 1.31.56 2.28 1.51.96.94 1.55 2.25.58 1.3.58 2.78m9.95-7.24h11.11v66.87h-11.11zm22.36 0h11.12v66.87h-11.12zm31.01 38.48h20.97q0-2.16-.61-4.08-.61-1.91-1.82-3.35-1.22-1.44-3.09-2.27-1.86-.83-4.34-.83-4.81 0-7.58 2.74t-3.53 7.79m28.35 6.7h-28.58q.27 3.56 1.26 6.14.99 2.59 2.61 4.28t3.85 2.52 4.93.83 4.65-.63q1.96-.63 3.42-1.4 1.47-.76 2.57-1.39t2.14-.63q1.39 0 2.07 1.04l3.19 4.05q-1.84 2.16-4.14 3.62-2.29 1.46-4.79 2.34t-5.09 1.24q-2.58.35-5.01.35-4.82 0-8.96-1.59-4.14-1.6-7.2-4.73t-4.81-7.74q-1.76-4.61-1.76-10.68 0-4.73 1.53-8.89 1.53-4.17 4.39-7.25t6.97-4.88q4.12-1.8 9.3-1.8 4.36 0 8.05 1.4 3.69 1.39 6.35 4.07 2.65 2.68 4.16 6.57t1.51 8.89q0 2.51-.54 3.39t-2.07.88m26.32 22.41q-6.03 0-9.25-3.4-3.21-3.4-3.21-9.38v-25.78h-4.73q-.9 0-1.53-.59t-.63-1.75v-4.41l7.43-1.22 2.34-12.6q.22-.9.85-1.39.63-.5 1.62-.5h5.76v14.53h12.33v7.93h-12.33v25.02q0 2.16 1.06 3.37 1.06 1.22 2.9 1.22 1.04 0 1.73-.25.7-.25 1.22-.52t.92-.52q.41-.24.81-.24.5 0 .81.24.32.25.68.74l3.33 5.4q-2.43 2.03-5.58 3.06-3.15 1.04-6.53 1.04m33.48 0q-6.03 0-9.25-3.4-3.21-3.4-3.21-9.38v-25.78h-4.73q-.9 0-1.53-.59t-.63-1.75v-4.41l7.43-1.22 2.34-12.6q.22-.9.85-1.39.63-.5 1.62-.5h5.76v14.53h12.33v7.93h-12.33v25.02q0 2.16 1.06 3.37 1.06 1.22 2.9 1.22 1.04 0 1.73-.25.7-.25 1.22-.52t.92-.52q.41-.24.81-.24.5 0 .81.24.32.25.68.74l3.33 5.4q-2.43 2.03-5.58 3.06-3.15 1.04-6.53 1.04m51.12-46.89h8.91l-25.15 58.86q-.5 1.17-1.29 1.78-.78.6-2.4.6h-8.28l8.64-18.53-18.68-42.71h9.77q1.3 0 2.04.63.75.63 1.11 1.44l9.81 23.94q.49 1.21.83 2.43.34 1.21.65 2.48.41-1.27.81-2.5.41-1.24.9-2.45l9.27-23.9q.36-.9 1.19-1.49.84-.58 1.87-.58m45.14 5-2.52 4q-.45.72-.95 1.01-.49.29-1.26.29-.81 0-1.73-.44-.92-.46-2.14-1.02-1.21-.56-2.77-1.01-1.55-.45-3.66-.45-3.29 0-5.16 1.4-1.86 1.39-1.86 3.64 0 1.48.96 2.5.97 1.01 2.57 1.78 1.6.76 3.62 1.37 2.03.61 4.12 1.33t4.12 1.64q2.02.92 3.62 2.34 1.6 1.41 2.56 3.4.97 1.98.97 4.76 0 3.34-1.19 6.15t-3.53 4.86-5.79 3.19q-3.44 1.15-7.94 1.15-2.38 0-4.66-.43-2.27-.43-4.36-1.19-2.09-.77-3.87-1.8t-3.13-2.25l2.57-4.23q.49-.77 1.17-1.17.67-.4 1.71-.4 1.03 0 1.95.58.93.59 2.14 1.26 1.22.68 2.86 1.26 1.64.59 4.16.59 1.98 0 3.4-.48 1.42-.47 2.34-1.24.92-.76 1.35-1.77t.43-2.09q0-1.62-.97-2.66t-2.57-1.8q-1.59-.76-3.64-1.37t-4.19-1.33q-2.13-.72-4.18-1.69-2.05-.96-3.65-2.45-1.59-1.49-2.56-3.64-.97-2.16-.97-5.22 0-2.84 1.13-5.4 1.12-2.57 3.3-4.48 2.19-1.91 5.45-3.06t7.54-1.15q4.77 0 8.68 1.58 3.92 1.57 6.53 4.14m24.25 41.89q-6.03 0-9.25-3.4-3.21-3.4-3.21-9.38v-25.78h-4.73q-.9 0-1.53-.59t-.63-1.75v-4.41l7.43-1.22 2.34-12.6q.22-.9.85-1.39.63-.5 1.62-.5h5.76v14.53h12.33v7.93h-12.33v25.02q0 2.16 1.06 3.37 1.06 1.22 2.9 1.22 1.04 0 1.73-.25.7-.25 1.22-.52t.92-.52q.41-.24.81-.24.5 0 .81.24.32.25.68.74l3.33 5.4q-2.43 2.03-5.58 3.06-3.15 1.04-6.53 1.04"/></svg>